<mxfile host="app.diagrams.net" agent="Mozilla/5.0 (Macintosh; Intel Mac OS X 10.15; rv:139.0) Gecko/20100101 Firefox/139.0" version="27.2.0">
  <diagram name="Page-1" id="rEytcamNuMyfKARtGRMQ">
    <mxGraphModel dx="678" dy="485" grid="1" gridSize="10" guides="1" tooltips="1" connect="1" arrows="1" fold="1" page="1" pageScale="1" pageWidth="850" pageHeight="1100" math="0" shadow="0">
      <root>
        <mxCell id="0" />
        <mxCell id="1" parent="0" />
        <mxCell id="xH-E3bCQ7HgQ4Wnih8H1-1" value="" style="shape=partialRectangle;whiteSpace=wrap;html=1;bottom=0;right=0;fillColor=none;direction=south;" vertex="1" parent="1">
          <mxGeometry x="320" y="190" width="60" height="120" as="geometry" />
        </mxCell>
        <mxCell id="xH-E3bCQ7HgQ4Wnih8H1-2" value="" style="shape=partialRectangle;whiteSpace=wrap;html=1;bottom=0;right=0;fillColor=none;direction=south;" vertex="1" parent="1">
          <mxGeometry x="380" y="190" width="60" height="120" as="geometry" />
        </mxCell>
        <mxCell id="xH-E3bCQ7HgQ4Wnih8H1-3" value="" style="shape=partialRectangle;whiteSpace=wrap;html=1;bottom=0;right=0;fillColor=none;direction=south;" vertex="1" parent="1">
          <mxGeometry x="260" y="190" width="60" height="120" as="geometry" />
        </mxCell>
        <mxCell id="xH-E3bCQ7HgQ4Wnih8H1-4" value="" style="shape=partialRectangle;whiteSpace=wrap;html=1;bottom=0;right=0;fillColor=none;direction=south;" vertex="1" parent="1">
          <mxGeometry x="200" y="190" width="60" height="120" as="geometry" />
        </mxCell>
        <mxCell id="xH-E3bCQ7HgQ4Wnih8H1-5" value="" style="shape=partialRectangle;whiteSpace=wrap;html=1;bottom=0;right=0;fillColor=none;direction=south;" vertex="1" parent="1">
          <mxGeometry x="140" y="190" width="60" height="120" as="geometry" />
        </mxCell>
        <mxCell id="xH-E3bCQ7HgQ4Wnih8H1-6" value="" style="shape=partialRectangle;whiteSpace=wrap;html=1;bottom=0;right=0;fillColor=none;direction=south;" vertex="1" parent="1">
          <mxGeometry x="360" y="160" width="60" height="120" as="geometry" />
        </mxCell>
        <mxCell id="xH-E3bCQ7HgQ4Wnih8H1-7" value="" style="shape=partialRectangle;whiteSpace=wrap;html=1;bottom=0;right=0;fillColor=none;direction=south;" vertex="1" parent="1">
          <mxGeometry x="420" y="160" width="60" height="120" as="geometry" />
        </mxCell>
        <mxCell id="xH-E3bCQ7HgQ4Wnih8H1-8" value="" style="shape=partialRectangle;whiteSpace=wrap;html=1;bottom=0;right=0;fillColor=none;direction=south;" vertex="1" parent="1">
          <mxGeometry x="300" y="160" width="60" height="120" as="geometry" />
        </mxCell>
        <mxCell id="xH-E3bCQ7HgQ4Wnih8H1-9" value="" style="shape=partialRectangle;whiteSpace=wrap;html=1;bottom=0;right=0;fillColor=none;direction=south;" vertex="1" parent="1">
          <mxGeometry x="240" y="160" width="60" height="120" as="geometry" />
        </mxCell>
        <mxCell id="xH-E3bCQ7HgQ4Wnih8H1-10" value="" style="shape=partialRectangle;whiteSpace=wrap;html=1;bottom=0;right=0;fillColor=none;direction=south;" vertex="1" parent="1">
          <mxGeometry x="180" y="160" width="60" height="120" as="geometry" />
        </mxCell>
      </root>
    </mxGraphModel>
  </diagram>
</mxfile>
